Coordinates
version=1
nRows=16
nColumns=40
inDegrees=yes

Units are S.I. units (second, meters, Newtons, ...)
Angles are in degrees.

endheader
time	pelvis_tilt	pelvis_list	pelvis_rotation	pelvis_tx	pelvis_ty	pelvis_tz	hip_flexion_r	hip_adduction_r	hip_rotation_r	knee_angle_r	knee_angle_r_beta	ankle_angle_r	subtalar_angle_r	mtp_angle_r	hip_flexion_l	hip_adduction_l	hip_rotation_l	knee_angle_l	knee_angle_l_beta	ankle_angle_l	subtalar_angle_l	mtp_angle_l	lumbar_extension	lumbar_bending	lumbar_rotation	arm_flex_r	arm_add_r	arm_rot_r	elbow_flex_r	pro_sup_r	wrist_flex_r	wrist_dev_r	arm_flex_l	arm_add_l	arm_rot_l	elbow_flex_l	pro_sup_l	wrist_flex_l	wrist_dev_l
     11.92000000	     -2.17367212	     -3.88525453	     -1.48301350	      0.73274571	      0.92284634	      0.47297079	     20.56575457	      1.37684763	    -11.08424037	     22.62304307	     22.62304307	      5.79894974	     -4.86096800	     -4.12598364	      6.40938941	     -9.58010251	     -4.75308788	     43.11645797	     43.11645797	     12.91708461	    -14.24260671	     -6.49488720	     -9.34801700	      7.98110910	      0.18089088	      3.88932224	    -15.91033602	     -6.04934449	     50.99965498	     45.29996016	      0.00000000	      0.00000000	      3.78479978	    -13.32440569	      0.30918165	     65.49304244	     47.02760933	      0.00000000	      0.00000000
     11.93371429	     -2.17876992	     -3.88170469	     -1.10574387	      0.73302547	      0.92364366	      0.47523479	     20.00148283	      1.32250951	    -11.83407765	     22.60795026	     22.60795026	      6.40024033	     -4.01229291	     -4.16080770	      8.39710258	     -9.86222920	     -3.90972939	     46.81198381	     46.81198381	     11.34099421	    -15.60867918	     -5.39110850	     -9.32212439	      7.99003608	      0.23037007	      4.22781823	    -16.40445108	     -5.86701085	     52.14892650	     45.26159930	      0.00000000	      0.00000000	      3.66211166	    -12.87564142	     -0.17017440	     63.63065925	     47.04007262	      0.00000000	      0.00000000
     11.94742857	     -2.19007040	     -4.00139235	     -0.75440755	      0.73313718	      0.92440596	      0.47754583	     19.31780103	      1.50207543	    -12.37762981	     22.29972440	     22.29972440	      6.81307981	     -3.53197619	     -4.12977449	     10.40523609	    -10.36707465	     -3.34841003	     50.30948052	     50.30948052	     10.16374370	    -16.34418115	     -3.91419839	     -9.32675373	      8.12086103	      0.41512036	      4.67471476	    -16.85787643	     -5.86255514	     52.80565148	     45.24672559	      0.00000000	      0.00000000	      3.28486975	    -12.64805419	     -0.27269530	     62.62077522	     47.03226373	      0.00000000	      0.00000000
     11.96114286	     -2.11067201	     -4.07904020	     -0.39068036	      0.73310750	      0.92526035	      0.47958918	     18.60245740	      1.58580251	    -13.02511535	     22.12664288	     22.12664288	      7.37976100	     -2.84493471	     -3.87756756	     12.41091000	    -10.70950411	     -2.70914151	     53.75530709	     53.75530709	     10.81195136	    -16.34383698	      1.66574059	     -9.45563445	      8.22659591	      0.92673804	      4.78953886	    -17.59112656	     -5.66137596	     53.93125495	     45.22234103	      0.00000000	      0.00000000	      3.38447165	    -12.04522061	     -0.63236014	     60.66229977	     47.03461357	      0.00000000	      0.00000000
     11.97485714	     -2.02322509	     -4.15024757	     -0.04766028	      0.73295182	      0.92611907	      0.48159280	     17.85662201	      1.68953492	    -13.61290908	     21.87367747	     21.87367747	      7.76383508	     -2.24452485	     -3.89752160	     14.19588377	    -11.08000511	     -2.30629657	     56.39975269	     56.39975269	     10.34869709	    -16.96129515	      4.00671013	     -9.58526067	      8.29086213	      0.89929177	      5.52710675	    -17.87986017	     -5.77657807	     54.49381461	     45.22476805	      0.00000000	      0.00000000	      2.87334848	    -11.96799721	     -0.67461186	     59.39948008	     47.01485749	      0.00000000	      0.00000000
     11.98857143	     -2.00938307	     -4.23683833	      0.25646892	      0.73261808	      0.92696892	      0.48350945	     17.13958552	      1.85498121	    -14.09571755	     21.48313031	     21.48313031	      8.08657027	     -1.68944814	     -3.79449635	     16.00155934	    -11.45888266	     -2.00159656	     58.58335747	     58.58335747	     10.54902273	    -17.28661471	      7.09968258	     -9.63350289	      8.38710851	      1.19210067	      6.05308002	    -18.33173003	     -5.74830049	     54.98059793	     45.22650495	      0.00000000	      0.00000000	      2.65421794	    -11.64759341	     -1.04849665	     57.65750221	     47.01475688	      0.00000000	      0.00000000
     12.00228571	     -1.93722361	     -4.30317313	      0.58367071	      0.73221282	      0.92793050	      0.48531988	     16.31416794	      2.03323783	    -14.51894583	     20.99133016	     20.99133016	      8.38754667	     -1.27922558	     -3.73529680	     17.56472376	    -11.82959657	     -1.82903763	     60.04086959	     60.04086959	     10.38552070	    -17.73302074	      8.40540384	     -9.77222140	      8.43695076	      1.25437506	      6.77792698	    -18.62374094	     -5.83866923	     55.42369627	     45.22700422	      0.00000000	      0.00000000	      2.06418823	    -11.47148090	     -1.19122040	     56.42272709	     46.99957442	      0.00000000	      0.00000000
     12.01600000	     -1.91600126	     -4.32599535	      0.88068197	      0.73160081	      0.92887917	      0.48691352	     15.59164093	      2.15228034	    -14.92041271	     20.55504282	     20.55504282	      8.68013804	     -0.85454466	     -3.60857301	     19.12483794	    -12.09116845	     -1.70485403	     61.01659556	     61.01659556	     10.95380187	    -17.96827275	     10.92402968	     -9.84949504	      8.45962876	      1.58507813	      7.33978511	    -19.05228695	     -5.81972800	     55.77304777	     45.23881533	      0.00000000	      0.00000000	      1.90850965	    -11.00784936	     -1.86555209	     54.35621640	     47.01164668	      0.00000000	      0.00000000
     12.02971429	     -1.89628870	     -4.26590779	      1.10633838	      0.73086786	      0.92981606	      0.48843909	     14.90961912	      2.22569790	    -15.06823286	     20.15351384	     20.15351384	      8.93643701	     -0.70120211	     -3.59605683	     20.43099259	    -12.30534891	     -1.84394092	     61.19778506	     61.19778506	     10.89642382	    -18.29807659	     11.03744738	     -9.98224834	      8.36030068	      1.88396157	      8.03319847	    -19.41697645	     -5.97025140	     56.06283683	     45.23988134	      0.00000000	      0.00000000	      1.12653219	    -10.93579475	     -1.84788646	     53.78550818	     46.99418698	      0.00000000	      0.00000000
     12.04342857	     -1.88279316	     -4.29204945	      1.45752234	      0.73002243	      0.93094369	      0.48963003	     14.00710638	      2.36092955	    -15.64241789	     19.32839317	     19.32839317	      9.09374642	      0.04730790	     -3.56984947	     21.71948702	    -12.44810169	     -1.74525989	     60.88739106	     60.88739106	     11.52112688	    -18.41603403	     12.62860661	    -10.01409033	      8.44193243	      1.82921513	      8.90228473	    -19.51276511	     -5.87630003	     56.41717457	     45.24411136	      0.00000000	      0.00000000	      1.12607144	    -10.48029861	     -2.73807279	     50.52352496	     47.01461131	      0.00000000	      0.00000000
     12.05714286	     -1.88688240	     -4.24529923	      1.73569602	      0.72906486	      0.93198508	      0.49075212	     13.19524125	      2.46969143	    -15.89669754	     18.59613073	     18.59613073	      9.25079778	      0.37816596	     -3.51568243	     22.79338041	    -12.50294937	     -1.82642330	     59.89052028	     59.89052028	     11.82660742	    -18.52542100	     13.00426880	    -10.10621674	      8.41565188	      1.82552721	      9.76472236	    -19.58958449	     -5.99049679	     56.91401068	     45.24204980	      0.00000000	      0.00000000	      0.46122296	    -10.38196075	     -2.99789879	     49.12768962	     47.00616295	      0.00000000	      0.00000000
     12.07085714	     -1.96270935	     -4.14145443	      1.99024403	      0.72791294	      0.93286861	      0.49165230	     12.48321692	      2.49212846	    -16.18798168	     17.88260521	     17.88260521	      9.37527868	      0.79418341	     -3.65012293	     23.80655183	    -12.39839590	     -1.91563257	     58.38075059	     58.38075059	     12.23160732	    -18.58433708	     13.57230797	    -10.09687914	      8.34818582	      1.99312702	     10.52949856	    -19.75885580	     -6.03655217	     57.26369925	     45.25010515	      0.00000000	      0.00000000	      0.34958740	     -9.97665686	     -3.82011389	     46.50621752	     47.02861575	      0.00000000	      0.00000000
     12.08457143	     -2.02153038	     -4.06704887	      2.24629134	      0.72669291	      0.93369282	      0.49244201	     11.71738311	      2.58466496	    -16.37874534	     17.08239406	     17.08239406	      9.49843482	      1.05711611	     -3.62469323	     24.63838000	    -12.25326983	     -1.98274429	     56.35016340	     56.35016340	     12.50038150	    -18.60200940	     13.75402967	    -10.14900173	      8.31188057	      1.94903696	     11.42924229	    -19.74188442	     -6.17167030	     57.87302557	     45.24326568	      0.00000000	      0.00000000	     -0.38176290	     -9.92759735	     -3.99442223	     45.25599444	     47.01476128	      0.00000000	      0.00000000
     12.09828571	     -2.15529346	     -3.95284457	      2.47557136	      0.72534492	      0.93429510	      0.49305229	     11.05862590	      2.60342162	    -16.62651271	     16.31164615	     16.31164615	      9.53380687	      1.42300744	     -4.00569271	     25.38733060	    -11.98903370	     -2.06344319	     53.86637480	     53.86637480	     12.66345400	    -18.57364727	     13.77343403	    -10.10273396	      8.24867791	      2.14796595	     12.16399371	    -19.82370723	     -6.29890698	     58.44007074	     45.24803579	      0.00000000	      0.00000000	     -0.36457333	     -9.53770967	     -4.85120289	     42.40069247	     47.03769819	      0.00000000	      0.00000000
     12.11200000	     -2.39009124	     -4.06996489	      2.72798703	      0.72377523	      0.93422615	      0.49369016	     10.83765770	      2.80676054	    -16.78435767	     16.14249396	     16.14249396	      9.84135639	      1.34597157	     -4.09954701	     26.30697076	    -11.94293555	     -2.00464079	     51.28992101	     51.28992101	     13.01212036	    -18.19058863	     13.93443556	     -9.91361334	      8.42508120	      2.61862900	     12.81758689	    -20.00829619	     -6.38944323	     58.76275803	     45.24432143	      0.00000000	      0.00000000	     -1.01294868	     -9.55012672	     -4.87067950	     42.08072421	     47.02646357	      0.00000000	      0.00000000
     12.12571429	     -2.43794173	     -3.79294936	      2.93689441	      0.72240558	      0.93507942	      0.49395685	      9.78816201	      2.74963638	    -16.92834310	     14.78515149	     14.78515149	      9.78288159	      1.84400038	     -4.06482931	     26.56402939	    -11.29572997	     -2.03625077	     47.93689414	     47.93689414	     12.87855011	    -18.37346281	     14.12808121	    -10.06271267	      8.17034126	      1.98953758	     13.99942246	    -19.50885548	     -6.53995273	     59.96359264	     45.21758809	      0.00000000	      0.00000000	     -1.87494913	     -9.57670588	     -4.94293997	     40.27559706	     46.99813722	      0.00000000	      0.00000000
